<?xml version="1.0" encoding="iso-8859-1"?>
<!-- Generator: Adobe Illustrator 19.0.0, SVG Export Plug-In . SVG Version: 6.00 Build 0)  -->
<svg version="1.1" id="Layer_1" xmlns="http://www.w3.org/2000/svg" xmlns:xlink="http://www.w3.org/1999/xlink" x="0px" y="0px"
	 viewBox="0 0 512 512" style="enable-background:new 0 0 512 512;" xml:space="preserve">
<g>
	<g>
		<path d="M29.867,0h-8.533C9.574,0,0,9.574,0,21.333v469.333C0,502.426,9.574,512,21.333,512h8.533
			c11.759,0,21.333-9.574,21.333-21.333v-371.2v-0.051V21.333C51.2,9.574,41.626,0,29.867,0z"/>
	</g>
</g>
<g>
	<g>
		<path d="M490.667,0h-8.533C470.374,0,460.8,9.574,460.8,21.333v98.133v371.2c0,11.759,9.574,21.333,21.333,21.333h8.533
			c11.759,0,21.333-9.574,21.333-21.333V21.333C512,9.574,502.426,0,490.667,0z"/>
	</g>
</g>
<g>
	<g>
		<path d="M441.438,113.434L402.33,70.767c-1.493-1.638-3.49-2.5-5.53-2.5c-1.007,0-2.022,0.213-2.995,0.649
			c-2.918,1.323-4.83,4.437-4.83,7.885v34.133h-265.95V76.8c0-3.447-1.903-6.562-4.83-7.885c-2.935-1.323-6.289-0.597-8.525,1.852
			l-39.108,42.667c-1.527,1.664-2.295,3.849-2.295,6.033s0.768,4.369,2.295,6.033l39.108,42.667c1.493,1.63,3.49,2.5,5.53,2.5
			c1.007,0,2.022-0.213,2.995-0.649c2.918-1.323,4.83-4.437,4.83-7.885V128h265.958v34.133c0,3.447,1.903,6.562,4.83,7.885
			c2.935,1.323,6.289,0.597,8.525-1.852l39.108-42.667c1.519-1.664,2.287-3.849,2.287-6.033S442.965,115.098,441.438,113.434z"/>
	</g>
</g>
<g>
</g>
<g>
</g>
<g>
</g>
<g>
</g>
<g>
</g>
<g>
</g>
<g>
</g>
<g>
</g>
<g>
</g>
<g>
</g>
<g>
</g>
<g>
</g>
<g>
</g>
<g>
</g>
<g>
</g>
</svg>
